<svg width="253" height="250" viewBox="0 0 253 250" fill="none" xmlns="http://www.w3.org/2000/svg">
<path d="M126.5 0L129.534 77.3485L142.355 0.985664L135.554 78.1L157.959 3.9271L141.431 79.5911L173.068 8.77794L147.073 81.7984L187.442 15.4617L152.39 84.6869L200.855 23.8729L157.299 88.2113L213.095 33.8789L161.723 92.3158L223.97 45.322L165.591 96.9358L233.307 58.0217L168.842 101.998L240.961 71.7776L171.426 107.424L246.809 86.3729L173.301 113.126L250.759 101.577L174.438 119.016L252.75 117.151L174.819 125L252.75 132.849L174.438 130.984L250.759 148.423L173.301 136.874L246.809 163.627L171.426 142.576L240.961 178.222L168.842 148.002L233.307 191.978L165.591 153.064L223.97 204.678L161.723 157.684L213.095 216.121L157.299 161.789L200.855 226.127L152.39 165.313L187.442 234.538L147.073 168.202L173.068 241.222L141.431 170.409L157.959 246.073L135.554 171.9L142.355 249.014L129.534 172.652L126.5 250L123.466 172.652L110.645 249.014L117.446 171.9L95.0407 246.073L111.569 170.409L79.9322 241.222L105.927 168.202L65.5582 234.538L100.61 165.313L52.1452 226.127L95.7005 161.789L39.9048 216.121L91.2772 157.684L29.0301 204.678L87.4093 153.064L19.6925 191.978L84.158 148.002L12.0394 178.222L81.5744 142.576L6.19135 163.627L79.6993 136.874L2.24066 148.423L78.5623 130.984L0.249619 132.849L78.1813 125L0.249619 117.151L78.5623 119.016L2.24066 101.577L79.6993 113.126L6.19135 86.3729L81.5744 107.424L12.0394 71.7776L84.158 101.998L19.6925 58.0217L87.4093 96.9358L29.0301 45.322L91.2772 92.3158L39.9048 33.8789L95.7005 88.2113L52.1452 23.8729L100.61 84.6869L65.5582 15.4617L105.927 81.7984L79.9322 8.77794L111.569 79.5911L95.0407 3.9271L117.446 78.1L110.645 0.985664L123.466 77.3485L126.5 0Z" fill="#BDFF22" fill-opacity="0.05"/>
<path d="M196.842 125C196.842 163.378 165.355 194.5 126.502 194.5C87.6488 194.5 56.1621 163.378 56.1621 125C56.1621 86.6218 87.6488 55.5 126.502 55.5C165.355 55.5 196.842 86.6218 196.842 125Z" stroke="#BDFF22"/>
<path d="M126.503 136C132.633 136 137.623 131.086 137.623 125C137.623 118.914 132.633 114 126.503 114C120.373 114 115.383 118.914 115.383 125C115.383 131.086 120.373 136 126.503 136Z" fill="#BDFF22" stroke="black" stroke-width="2"/>
<path d="M163.443 124.5C163.443 144.929 146.682 161.5 125.993 161.5C105.304 161.5 88.543 144.929 88.543 124.5C88.543 104.071 105.304 87.5 125.993 87.5C146.682 87.5 163.443 104.071 163.443 124.5Z" stroke="#F2F2F2" stroke-opacity="0.2"/>
</svg>
