<svg width="160" height="158" viewBox="0 0 160 158" fill="none" xmlns="http://www.w3.org/2000/svg">
<g opacity="0.3" filter="url(#filter0_d_10_1744)">
<path d="M61.836 31.5204C87.604 22.1291 116.198 35.6558 125.702 61.7331C135.206 87.8103 122.021 116.563 96.2529 125.955C70.4848 135.346 41.8912 121.819 32.3872 95.7419C22.8833 69.6646 36.0679 40.9117 61.836 31.5204Z" fill="#D9D9D9"/>
<path d="M62.0072 31.9902C87.5105 22.6954 115.82 36.0812 125.232 61.9043C134.643 87.7274 121.585 116.19 96.0817 125.485C70.5783 134.78 42.2684 121.394 32.857 95.5707C23.4457 69.7476 36.5038 41.285 62.0072 31.9902Z" stroke="black"/>
</g>
<path d="M74.8891 32.3976C74.7865 32.3969 74.7073 32.3683 74.6518 32.3119C74.5962 32.2461 74.5688 32.1666 74.5695 32.0732L74.6367 22.9315C74.6375 22.8288 74.6661 22.7497 74.7225 22.6941C74.7789 22.6292 74.8585 22.5971 74.9612 22.5979L80.743 22.6404C80.8457 22.6411 80.9248 22.6744 80.9803 22.7401C81.0359 22.7965 81.0633 22.8761 81.0625 22.9787L81.0586 23.5107C81.0579 23.6134 81.0293 23.6925 80.9729 23.7481C80.9165 23.8037 80.8369 23.8311 80.7343 23.8303L75.9744 23.7954L75.9519 26.8613L80.4037 26.894C80.5064 26.8948 80.5855 26.928 80.641 26.9937C80.6966 27.0502 80.724 27.1297 80.7233 27.2324L80.7195 27.7503C80.7188 27.8437 80.6902 27.9228 80.6337 27.9877C80.5773 28.0433 80.4978 28.0707 80.3951 28.07L75.9432 28.0372L75.9199 31.2152L80.7917 31.251C80.8944 31.2517 80.9735 31.2803 81.0291 31.3367C81.0847 31.3931 81.1121 31.4727 81.1113 31.5753L81.1073 32.1213C81.1066 32.2146 81.0781 32.2938 81.0216 32.3587C80.9652 32.4143 80.8856 32.4417 80.783 32.4409L74.8891 32.3976Z" fill="#F2F2F2"/>
<path d="M83.9652 32.0865C83.892 32.0716 83.8289 32.0302 83.7757 31.9622C83.7318 31.8961 83.7179 31.8219 83.7342 31.7395C83.7397 31.712 83.7506 31.6809 83.767 31.6461C83.7944 31.6041 83.8318 31.5593 83.8793 31.5118L86.8839 28.8801L85.2327 25.4725C85.207 25.4101 85.1887 25.3587 85.1776 25.3184C85.1757 25.2799 85.1784 25.2424 85.1857 25.2057C85.202 25.1234 85.243 25.0603 85.3088 25.0165C85.3745 24.9727 85.4486 24.9592 85.5309 24.976L86.2306 25.1183C86.3312 25.1388 86.3989 25.1812 86.4337 25.2454C86.4795 25.3023 86.5162 25.3574 86.5437 25.4106L87.8977 28.1577L90.1902 26.1669C90.2359 26.1285 90.287 26.0865 90.3436 26.0409C90.4094 25.9971 90.4926 25.9855 90.5932 26.006L91.2654 26.1427C91.3477 26.1595 91.4109 26.2009 91.4549 26.267C91.4989 26.3331 91.5127 26.4074 91.4964 26.4898C91.4891 26.5264 91.4727 26.5611 91.4472 26.594C91.4308 26.6288 91.3988 26.6699 91.3514 26.7174L88.4973 29.2369L90.2723 32.8126C90.298 32.8749 90.3118 32.9254 90.3137 32.9638C90.3247 33.0042 90.3266 33.0427 90.3193 33.0793C90.303 33.1617 90.262 33.2248 90.1962 33.2685C90.1304 33.3123 90.0564 33.3258 89.9741 33.3091L89.247 33.1611C89.1555 33.1425 89.0869 33.1047 89.0411 33.0478C88.9953 32.9909 88.9586 32.9358 88.9311 32.8826L87.4946 29.9758L85.0624 32.0954C85.0185 32.1246 84.9637 32.1611 84.898 32.2048C84.8432 32.2413 84.7655 32.2493 84.6649 32.2288L83.9652 32.0865Z" fill="#F2F2F2"/>
<path d="M93.1446 35.6115C93.0573 35.5786 92.9943 35.5199 92.9558 35.4356C92.9227 35.3633 92.9223 35.2833 92.9545 35.1957L96.1647 26.4716C96.1969 26.384 96.2489 26.3238 96.3206 26.291C96.4043 26.2527 96.4898 26.2501 96.5772 26.283L97.1797 26.5103C97.267 26.5432 97.3256 26.6003 97.3555 26.6813C97.3972 26.7569 97.402 26.8386 97.3698 26.9261L97.1571 27.5042C97.473 27.2943 97.8411 27.1588 98.2613 27.0978C98.6815 27.0369 99.1536 27.1052 99.6776 27.3029C100.167 27.4874 100.551 27.727 100.83 28.0219C101.118 28.3201 101.318 28.6549 101.43 29.0263C101.551 29.401 101.6 29.7937 101.578 30.2044C101.557 30.6151 101.473 31.0323 101.327 31.4561C101.284 31.5995 101.233 31.7501 101.175 31.9077C101.117 32.0654 101.058 32.2127 100.998 32.3495C100.838 32.7579 100.632 33.129 100.379 33.4628C100.131 33.7879 99.8394 34.0521 99.506 34.2555C99.1846 34.4535 98.817 34.5742 98.4032 34.6176C98.0014 34.6555 97.556 34.5823 97.0669 34.3978C96.5604 34.2068 96.1664 33.9534 95.8847 33.6377C95.6151 33.3165 95.4226 32.9746 95.3075 32.612L94.1858 35.6602C94.1536 35.7478 94.1016 35.8079 94.0299 35.8407C93.9549 35.8823 93.8694 35.8849 93.7734 35.8487L93.1446 35.6115ZM97.1834 33.2298C97.6375 33.4011 98.0267 33.4382 98.3508 33.341C98.6869 33.2383 98.9698 33.0508 99.1993 32.7783C99.4321 32.497 99.6249 32.1757 99.7777 31.8144C99.8799 31.5637 99.9734 31.3097 100.058 31.0524C100.176 30.6779 100.236 30.3116 100.239 29.9534C100.244 29.5865 100.152 29.2573 99.9607 28.9658C99.7816 28.6688 99.465 28.4347 99.0109 28.2634C98.583 28.102 98.1966 28.0709 97.8518 28.1703C97.5157 28.2729 97.2241 28.4572 96.9771 28.7231C96.742 28.9836 96.5561 29.2726 96.4194 29.5901C96.3591 29.7269 96.2935 29.8917 96.2226 30.0844C96.1517 30.2771 96.0932 30.4495 96.0471 30.6017C95.9431 30.9116 95.9017 31.2401 95.9231 31.5874C95.9533 31.9379 96.0683 32.2605 96.2681 32.5554C96.4679 32.8502 96.773 33.075 97.1834 33.2298Z" fill="#F2F2F2"/>
<path d="M102.392 38.3211C102.313 38.2722 102.259 38.2066 102.233 38.1243C102.219 38.0389 102.236 37.9563 102.284 37.8763L105.694 32.2002C105.742 32.1202 105.807 32.0668 105.888 32.0402C105.978 32.0185 106.062 32.0321 106.142 32.081L106.69 32.4187C106.769 32.4676 106.82 32.5372 106.842 32.6275C106.864 32.7177 106.851 32.8029 106.803 32.8829L106.486 33.4109C106.808 33.2368 107.149 33.1673 107.509 33.2026C107.869 33.2379 108.244 33.3754 108.633 33.6152L109.11 33.9089C109.189 33.9578 109.236 34.025 109.25 34.1103C109.269 34.1877 109.254 34.2664 109.206 34.3464L108.911 34.8384C108.863 34.9184 108.8 34.9677 108.724 34.9864C108.647 35.005 108.569 34.9898 108.49 34.9409L107.775 34.5004C107.345 34.2362 106.931 34.1562 106.531 34.2605C106.135 34.3568 105.808 34.6209 105.548 35.0529L103.428 38.581C103.38 38.661 103.311 38.7119 103.222 38.7336C103.138 38.7473 103.056 38.7297 102.976 38.6808L102.392 38.3211Z" fill="#F2F2F2"/>
<path d="M110.288 43.263C109.565 42.6292 109.181 41.9013 109.135 41.0792C109.096 40.2501 109.389 39.4271 110.014 38.6102C110.086 38.5119 110.183 38.3918 110.304 38.25C110.432 38.1011 110.538 37.9837 110.624 37.8976C111.083 37.4189 111.575 37.0808 112.1 36.8835C112.632 36.679 113.161 36.6279 113.688 36.7299C114.222 36.8382 114.727 37.1015 115.204 37.5199C115.738 37.9876 116.086 38.4918 116.25 39.0325C116.42 39.5794 116.422 40.1451 116.253 40.7296C116.084 41.3141 115.76 41.8864 115.281 42.4465L115.126 42.6273C115.059 42.7053 114.983 42.744 114.897 42.7435C114.819 42.7491 114.745 42.7211 114.674 42.6596L111.032 39.4658C111.026 39.4729 111.014 39.4871 110.996 39.5084C110.978 39.5297 110.963 39.5474 110.95 39.5616C110.716 39.8646 110.545 40.1929 110.439 40.5466C110.339 40.8933 110.327 41.2369 110.404 41.5775C110.481 41.918 110.667 42.2176 110.962 42.476C111.214 42.6976 111.458 42.8432 111.693 42.9129C111.929 42.9826 112.138 43.0175 112.322 43.0176C112.513 43.0107 112.647 42.9977 112.724 42.9789C112.866 42.9421 112.961 42.932 113.008 42.9486C113.061 42.9581 113.127 42.9967 113.204 43.0644L113.709 43.5074C113.779 43.569 113.817 43.6395 113.823 43.7189C113.842 43.7974 113.817 43.8691 113.749 43.9338C113.651 44.034 113.483 44.116 113.244 44.1797C113.011 44.2362 112.733 44.2528 112.409 44.2294C112.085 44.206 111.74 44.1209 111.375 43.974C111.015 43.82 110.653 43.583 110.288 43.263ZM111.661 38.732L114.545 41.2612L114.572 41.2293C114.845 40.9102 115.028 40.5743 115.121 40.2215C115.222 39.8749 115.224 39.5353 115.127 39.2027C115.037 38.8631 114.841 38.5609 114.54 38.2963C114.238 38.0317 113.915 37.8785 113.57 37.8366C113.238 37.7938 112.909 37.8473 112.585 37.997C112.26 38.1467 111.961 38.381 111.688 38.7001L111.661 38.732Z" fill="#F2F2F2"/>
<path d="M116.85 50.7392C116.506 50.3458 116.259 49.9651 116.111 49.5969C115.963 49.2288 115.881 48.8947 115.866 48.5945C115.852 48.2944 115.874 48.0364 115.933 47.8206C115.999 47.6118 116.07 47.4665 116.147 47.3848C116.218 47.3093 116.298 47.2809 116.389 47.2998C116.48 47.3186 116.55 47.3561 116.599 47.4123L117.005 47.876C117.042 47.9181 117.062 47.9559 117.067 47.9895C117.085 48.0238 117.087 48.0838 117.076 48.1695C117.058 48.348 117.05 48.537 117.051 48.7366C117.052 48.9361 117.092 49.1447 117.171 49.3623C117.255 49.5869 117.405 49.8222 117.621 50.068C117.934 50.4263 118.258 50.6622 118.593 50.7757C118.935 50.883 119.238 50.8183 119.502 50.5818C119.676 50.4261 119.772 50.2524 119.79 50.0607C119.815 49.876 119.761 49.6234 119.63 49.3028C119.504 48.9893 119.302 48.5813 119.024 48.0789C118.752 47.5702 118.579 47.1307 118.503 46.7604C118.434 46.3838 118.45 46.0556 118.553 45.7759C118.662 45.49 118.842 45.235 119.093 45.0109C119.35 44.7805 119.664 44.6368 120.036 44.5797C120.414 44.5163 120.809 44.5637 121.22 44.7217C121.638 44.8868 122.043 45.1941 122.436 45.6437C122.756 46.009 122.984 46.3621 123.121 46.7029C123.258 47.0437 123.331 47.3607 123.339 47.6538C123.355 47.9407 123.333 48.1854 123.275 48.388C123.216 48.5906 123.145 48.7359 123.061 48.8238C122.997 48.8931 122.92 48.9249 122.828 48.9193C122.743 48.9075 122.673 48.87 122.618 48.8068L122.231 48.3642C122.188 48.3151 122.161 48.2636 122.152 48.2098C122.148 48.163 122.148 48.1131 122.151 48.0601C122.18 47.9089 122.196 47.7437 122.201 47.5644C122.211 47.3922 122.177 47.2039 122.097 46.9995C122.031 46.796 121.89 46.5713 121.675 46.3254C121.368 45.9742 121.064 45.7762 120.764 45.7313C120.465 45.6864 120.204 45.7636 119.981 45.9628C119.849 46.0811 119.765 46.2256 119.728 46.3962C119.691 46.5669 119.726 46.7984 119.833 47.0909C119.941 47.3834 120.133 47.7874 120.41 48.3031C120.726 48.8476 120.923 49.3219 121.004 49.7258C121.085 50.1297 121.073 50.4781 120.97 50.771C120.866 51.064 120.683 51.3287 120.418 51.5653C120.126 51.8268 119.782 51.9786 119.385 52.0209C118.994 52.0702 118.578 51.9917 118.137 51.7852C117.709 51.5796 117.28 51.2309 116.85 50.7392Z" fill="#F2F2F2"/>
<path d="M121.328 58.318C121.098 57.8486 120.96 57.4169 120.912 57.0229C120.865 56.6289 120.873 56.2852 120.937 55.9918C121.001 55.6983 121.09 55.4552 121.204 55.2624C121.321 55.0779 121.428 54.9563 121.524 54.8976C121.611 54.8431 121.697 54.8368 121.779 54.8787C121.862 54.9206 121.92 54.9751 121.953 55.0422L122.224 55.5954C122.249 55.6457 122.259 55.6876 122.254 55.7211C122.262 55.7589 122.25 55.8176 122.216 55.8972C122.152 56.0649 122.095 56.2451 122.044 56.438C121.993 56.6308 121.977 56.8425 121.997 57.073C122.02 57.3119 122.104 57.5781 122.247 57.8714C122.457 58.2989 122.708 58.6112 123.002 58.8081C123.304 59.0009 123.614 59.0176 123.931 58.8582C124.139 58.7534 124.277 58.6109 124.345 58.4306C124.416 58.2587 124.431 58.0009 124.387 57.6572C124.347 57.3219 124.259 56.8755 124.121 56.3181C123.991 55.7564 123.938 55.287 123.961 54.9097C123.993 54.5283 124.094 54.216 124.266 53.9729C124.447 53.7255 124.687 53.5264 124.987 53.3754C125.295 53.2203 125.637 53.1636 126.01 53.2055C126.393 53.2431 126.762 53.3918 127.117 53.6516C127.477 53.9198 127.789 54.3222 128.051 54.8586C128.265 55.2945 128.393 55.6948 128.437 56.0595C128.48 56.4241 128.468 56.749 128.399 57.034C128.34 57.3149 128.255 57.5454 128.146 57.7257C128.037 57.9059 127.93 58.0275 127.826 58.0904C127.746 58.1407 127.663 58.1512 127.576 58.1219C127.497 58.0884 127.439 58.0339 127.403 57.9584L127.144 57.4304C127.115 57.3717 127.103 57.3151 127.108 57.2606C127.116 57.2145 127.129 57.1663 127.146 57.116C127.213 56.9776 127.272 56.8225 127.323 56.6507C127.378 56.4872 127.394 56.2965 127.37 56.0785C127.359 55.8648 127.282 55.6112 127.138 55.3178C126.933 54.8987 126.692 54.6284 126.414 54.5069C126.136 54.3854 125.864 54.3917 125.597 54.5259C125.439 54.6056 125.319 54.7229 125.239 54.8781C125.16 55.0332 125.133 55.2658 125.16 55.576C125.188 55.8861 125.268 56.3262 125.402 56.8963C125.564 57.504 125.632 58.0133 125.604 58.4241C125.577 58.8348 125.475 59.1681 125.299 59.4238C125.123 59.6795 124.876 59.8871 124.559 60.0464C124.209 60.2225 123.837 60.2792 123.442 60.2164C123.052 60.162 122.671 59.9776 122.299 59.6633C121.939 59.3532 121.615 58.9048 121.328 58.318Z" fill="#F2F2F2"/>
<path d="M125.049 82.6302C125.072 82.5301 125.117 82.4589 125.184 82.4169C125.26 82.3769 125.343 82.3673 125.434 82.3882L134.344 84.4354C134.444 84.4584 134.515 84.5035 134.557 84.5706C134.609 84.6399 134.623 84.7246 134.6 84.8247L134.459 85.4529C134.434 85.5621 134.388 85.6378 134.321 85.6799C134.263 85.724 134.22 85.7475 134.19 85.7504L126.207 88.6852L133.029 90.2527C133.13 90.2757 133.201 90.3208 133.243 90.388C133.294 90.4572 133.309 90.5419 133.286 90.642L133.138 91.2975C133.115 91.3977 133.066 91.4677 132.99 91.5077C132.921 91.5589 132.836 91.573 132.736 91.55L123.84 89.506C123.749 89.4851 123.679 89.4355 123.63 89.3571C123.578 89.2879 123.563 89.2077 123.584 89.1167L123.732 88.4612C123.754 88.3611 123.799 88.2899 123.866 88.2479C123.931 88.2149 123.975 88.1914 123.997 88.1773L131.909 85.2405L125.141 83.6855C125.05 83.6646 124.98 83.615 124.931 83.5366C124.888 83.4695 124.879 83.3858 124.901 83.2857L125.049 82.6302Z" fill="#F2F2F2"/>
<path d="M121.762 95.3554C122.016 94.6934 122.355 94.19 122.778 93.8451C123.201 93.5003 123.679 93.2977 124.212 93.2373C124.754 93.1804 125.316 93.252 125.899 93.4521C126.05 93.5017 126.238 93.571 126.464 93.6601C126.699 93.7527 126.883 93.8307 127.019 93.8943C127.591 94.1501 128.052 94.483 128.405 94.893C128.754 95.3117 128.968 95.7929 129.049 96.3365C129.13 96.8802 129.045 97.4786 128.793 98.1319C128.542 98.7852 128.205 99.2843 127.782 99.6291C127.359 99.9739 126.881 100.177 126.348 100.237C125.811 100.306 125.247 100.239 124.656 100.035C124.513 99.9891 124.325 99.9197 124.091 99.8272C123.865 99.738 123.68 99.66 123.536 99.593C122.973 99.3406 122.511 99.0077 122.15 98.5943C121.798 98.1843 121.581 97.7075 121.501 97.1638C121.42 96.6202 121.507 96.0174 121.762 95.3554ZM122.764 95.7513C122.556 96.2913 122.56 96.7893 122.774 97.2453C122.997 97.7047 123.434 98.0777 124.084 98.3644C124.21 98.4245 124.374 98.494 124.573 98.5728C124.773 98.6517 124.94 98.7125 125.073 98.7552C125.743 98.9896 126.309 99.0124 126.772 98.8238C127.243 98.6387 127.583 98.2761 127.791 97.736C127.998 97.1959 127.992 96.6919 127.773 96.2238C127.558 95.7678 127.124 95.4008 126.471 95.1229C126.344 95.0628 126.181 94.9933 125.981 94.9144C125.782 94.8356 125.615 94.7748 125.482 94.7321C124.815 94.489 124.246 94.4601 123.775 94.6452C123.309 94.8425 122.972 95.2112 122.764 95.7513Z" fill="#F2F2F2"/>
<path d="M117.651 103.288C117.849 102.814 118.101 102.44 118.408 102.166C118.723 101.895 119.069 101.709 119.445 101.607C119.826 101.517 120.225 101.495 120.64 101.542C121.052 101.597 121.467 101.705 121.886 101.865C122.027 101.916 122.157 101.967 122.277 102.018C122.397 102.07 122.524 102.13 122.657 102.197C123.053 102.388 123.414 102.615 123.739 102.877C124.061 103.147 124.323 103.453 124.524 103.794C124.722 104.144 124.831 104.526 124.85 104.94C124.877 105.359 124.792 105.805 124.594 106.278C124.382 106.786 124.116 107.17 123.796 107.428C123.475 107.686 123.137 107.866 122.782 107.967L125.739 109.241C125.825 109.278 125.883 109.333 125.913 109.407C125.947 109.493 125.947 109.579 125.911 109.665L125.652 110.285C125.616 110.371 125.557 110.427 125.476 110.453C125.399 110.491 125.318 110.492 125.232 110.455L116.694 106.778C116.609 106.741 116.548 106.679 116.514 106.593C116.484 106.519 116.487 106.439 116.523 106.353L116.765 105.772C116.805 105.677 116.861 105.615 116.934 105.586C117.016 105.56 117.099 105.565 117.185 105.602L117.725 105.835C117.541 105.501 117.426 105.122 117.382 104.696C117.345 104.274 117.435 103.805 117.651 103.288ZM118.579 104.008C118.399 104.438 118.354 104.825 118.443 105.169C118.533 105.512 118.7 105.813 118.946 106.071C119.201 106.333 119.485 106.537 119.799 106.682C119.932 106.75 120.093 106.824 120.282 106.905C120.479 106.99 120.648 107.058 120.789 107.109C121.092 107.229 121.419 107.283 121.768 107.271C122.113 107.267 122.436 107.173 122.736 106.987C123.032 106.81 123.267 106.514 123.439 106.101C123.623 105.662 123.67 105.271 123.581 104.927C123.5 104.588 123.324 104.294 123.054 104.045C122.792 103.8 122.485 103.591 122.132 103.419C121.887 103.304 121.638 103.196 121.386 103.098C121.019 102.96 120.653 102.879 120.289 102.854C119.934 102.833 119.604 102.91 119.299 103.083C119.002 103.26 118.763 103.568 118.579 104.008Z" fill="#F2F2F2"/>
<path d="M113.317 111.27C113.797 110.437 114.432 109.923 115.222 109.729C116.02 109.54 116.875 109.683 117.787 110.157C117.896 110.211 118.031 110.285 118.191 110.381C118.36 110.48 118.494 110.565 118.594 110.635C119.146 111.005 119.567 111.433 119.857 111.92C120.156 112.411 120.305 112.928 120.305 113.47C120.301 114.02 120.14 114.571 119.823 115.121C119.469 115.735 119.045 116.173 118.55 116.433C118.051 116.702 117.502 116.805 116.902 116.743C116.302 116.68 115.685 116.462 115.051 116.086L114.846 115.965C114.758 115.912 114.706 115.844 114.69 115.759C114.67 115.682 114.683 115.603 114.729 115.522L117.147 111.324C117.139 111.319 117.123 111.31 117.099 111.296C117.075 111.281 117.055 111.269 117.039 111.26C116.7 111.081 116.349 110.971 115.985 110.929C115.63 110.892 115.293 110.943 114.977 111.081C114.661 111.219 114.405 111.458 114.209 111.797C114.041 112.089 113.946 112.357 113.922 112.604C113.899 112.85 113.904 113.065 113.939 113.248C113.981 113.436 114.019 113.567 114.052 113.64C114.115 113.775 114.142 113.867 114.135 113.917C114.136 113.972 114.111 114.044 114.059 114.133L113.724 114.715C113.677 114.796 113.616 114.846 113.54 114.866C113.467 114.899 113.393 114.888 113.317 114.832C113.201 114.753 113.09 114.6 112.983 114.374C112.885 114.153 112.816 113.879 112.778 113.553C112.74 113.227 112.757 112.869 112.831 112.478C112.913 112.093 113.075 111.69 113.317 111.27ZM117.978 111.816L116.064 115.14L116.1 115.162C116.461 115.376 116.822 115.497 117.183 115.526C117.538 115.563 117.869 115.504 118.174 115.348C118.487 115.197 118.743 114.948 118.944 114.6C119.144 114.252 119.232 113.903 119.208 113.552C119.187 113.215 119.073 112.898 118.866 112.602C118.66 112.306 118.376 112.052 118.014 111.838L117.978 111.816Z" fill="#F2F2F2"/>
<path d="M92.2826 121.273C92.3796 121.239 92.4637 121.24 92.535 121.274C92.6094 121.318 92.6618 121.383 92.6925 121.472L95.6915 130.108C95.7251 130.205 95.7247 130.289 95.6902 130.36C95.6587 130.44 95.5945 130.497 95.4975 130.531L92.2701 131.65C91.2737 131.996 90.4033 132.036 89.6591 131.77C88.9148 131.505 88.3835 130.914 88.065 129.997C87.8293 129.318 87.8083 128.703 88.0022 128.151C88.1903 127.612 88.5463 127.158 89.0701 126.788L85.8115 123.977C85.7667 123.933 85.7366 123.889 85.7213 123.845C85.6968 123.775 85.7062 123.702 85.7496 123.628C85.7841 123.557 85.8367 123.509 85.9072 123.484L86.5421 123.264C86.692 123.212 86.816 123.213 86.9141 123.268C87.0122 123.323 87.1015 123.381 87.182 123.442L90.2664 126.136L92.5811 125.333L91.3962 121.921C91.3656 121.833 91.3704 121.747 91.4107 121.664C91.4453 121.593 91.511 121.541 91.608 121.507L92.2826 121.273ZM92.9715 126.457L90.789 127.214C90.1277 127.444 89.6814 127.752 89.45 128.138C89.2217 128.534 89.2025 129.005 89.3923 129.551C89.5791 130.089 89.8846 130.442 90.3088 130.611C90.7243 130.783 91.2671 130.753 91.9372 130.521L94.1197 129.764L92.9715 126.457Z" fill="#F2F2F2"/>
<path d="M79.9381 126.187C80.8938 126.082 81.6881 126.292 82.321 126.814C82.955 127.346 83.3584 128.118 83.531 129.132C83.5541 129.252 83.5763 129.404 83.5975 129.59C83.6199 129.785 83.6333 129.943 83.6378 130.064C83.6762 130.727 83.589 131.318 83.3763 131.839C83.1647 132.369 82.8423 132.794 82.4092 133.113C81.9669 133.434 81.4302 133.629 80.7993 133.698C80.0942 133.775 79.488 133.69 78.9808 133.445C78.4643 133.201 78.0494 132.819 77.7362 132.3C77.4229 131.78 77.2243 131.154 77.1403 130.421L77.1132 130.185C77.1015 130.083 77.1249 130 77.1835 129.938C77.2328 129.876 77.3038 129.84 77.3966 129.83L82.212 129.304C82.211 129.295 82.2088 129.277 82.2056 129.249C82.2025 129.221 82.1998 129.198 82.1977 129.179C82.1355 128.801 82.0111 128.453 81.8244 128.136C81.6387 127.827 81.395 127.586 81.0932 127.413C80.7915 127.239 80.4458 127.173 80.0561 127.216C79.7221 127.252 79.4496 127.334 79.2386 127.46C79.0276 127.586 78.8595 127.717 78.7341 127.853C78.6098 127.998 78.5282 128.106 78.4893 128.176C78.4196 128.305 78.3626 128.382 78.3183 128.406C78.2751 128.438 78.2025 128.46 78.1004 128.472L77.4324 128.544C77.3396 128.555 77.2622 128.535 77.2002 128.485C77.1299 128.446 77.0941 128.38 77.0927 128.286C77.0861 128.146 77.1406 127.966 77.2564 127.747C77.3732 127.537 77.5504 127.32 77.7879 127.097C78.0253 126.874 78.3222 126.678 78.6784 126.507C79.0357 126.346 79.4556 126.239 79.9381 126.187ZM82.3221 130.264L78.5087 130.68L78.5135 130.722C78.5613 131.139 78.6827 131.502 78.8777 131.809C79.0633 132.117 79.3106 132.348 79.6195 132.503C79.9295 132.666 80.2839 132.726 80.6829 132.682C81.0818 132.639 81.414 132.504 81.6793 132.278C81.9364 132.062 82.1205 131.784 82.2318 131.443C82.343 131.102 82.3747 130.723 82.3269 130.306L82.3221 130.264Z" fill="#F2F2F2"/>
<path d="M72.4138 125.4C72.8783 125.445 73.2929 125.579 73.6576 125.801C74.0223 126.024 74.3069 126.305 74.5116 126.643C74.7163 126.982 74.8012 127.351 74.7663 127.751C74.7103 128.392 74.4055 128.879 73.852 129.21C73.2985 129.541 72.5984 129.726 71.7517 129.766L69.6498 129.859L69.6145 130.263C69.5756 130.709 69.6752 131.071 69.9135 131.347C70.1424 131.622 70.5448 131.788 71.1208 131.843C71.5389 131.884 71.8853 131.833 72.16 131.69C72.4254 131.547 72.6206 131.35 72.7455 131.1C72.8134 130.966 72.9171 130.905 73.0564 130.919L73.6835 130.98C73.7857 130.989 73.8622 131.025 73.9131 131.086C73.9539 131.156 73.9706 131.232 73.9633 131.316C73.9511 131.455 73.885 131.622 73.765 131.817C73.6356 132.011 73.451 132.195 73.211 132.368C72.971 132.542 72.6734 132.678 72.3183 132.775C71.9531 132.88 71.5197 132.908 71.018 132.86C70.4606 132.806 69.998 132.686 69.6301 132.501C69.2613 132.325 68.9807 132.105 68.7881 131.843C68.5862 131.58 68.4522 131.29 68.3861 130.974C68.3107 130.658 68.2868 130.341 68.3144 130.025L68.7087 125.506C68.7168 125.413 68.7562 125.337 68.827 125.279C68.8876 125.228 68.9643 125.207 69.0572 125.216L69.6982 125.278C69.8004 125.288 69.877 125.324 69.9278 125.385C69.9779 125.455 69.9989 125.537 69.9908 125.63L69.9384 126.23C70.0738 126.074 70.251 125.922 70.47 125.775C70.6881 125.636 70.9554 125.526 71.2717 125.444C71.5872 125.372 71.9679 125.357 72.4138 125.4ZM72.0299 126.418C71.649 126.381 71.2937 126.426 70.9641 126.554C70.6336 126.691 70.3651 126.923 70.1586 127.25C69.9428 127.576 69.8121 127.999 69.7667 128.52L69.7326 128.91L71.3698 128.829C72.0375 128.8 72.5483 128.69 72.9022 128.499C73.2553 128.317 73.4465 128.059 73.4757 127.725C73.4984 127.464 73.4432 127.239 73.3099 127.048C73.1666 126.865 72.9825 126.721 72.7575 126.614C72.5233 126.507 72.2808 126.442 72.0299 126.418Z" fill="#F2F2F2"/>
<path d="M62.9832 122.716C63.6261 122.877 64.1538 123.138 64.5663 123.501C64.9676 123.871 65.24 124.319 65.3833 124.845C65.5245 125.381 65.5263 125.977 65.3888 126.636C65.3655 126.774 65.3268 126.957 65.2727 127.184C65.2187 127.411 65.171 127.591 65.1295 127.725C64.9558 128.374 64.687 128.899 64.3233 129.299C63.9573 129.707 63.5143 129.977 62.9941 130.107C62.4627 130.243 61.8756 130.231 61.2326 130.071C60.7074 129.94 60.2765 129.755 59.9398 129.517C59.594 129.277 59.3259 129.013 59.1355 128.725C58.945 128.437 58.8223 128.146 58.7672 127.854C58.7031 127.559 58.6946 127.292 58.7418 127.054C58.7543 126.961 58.7988 126.895 58.8751 126.856C58.9515 126.817 59.0349 126.809 59.1255 126.832L59.7775 126.995C59.868 127.017 59.9316 127.053 59.9682 127.1C60.0027 127.157 60.0307 127.241 60.0522 127.352C60.1093 127.838 60.2566 128.206 60.4941 128.458C60.7316 128.71 61.0586 128.887 61.4752 128.992C62.0185 129.127 62.5022 129.07 62.9262 128.82C63.3412 128.568 63.6509 128.073 63.8553 127.335C63.9422 127.01 64.0178 126.692 64.0822 126.382C64.2344 125.621 64.183 125.031 63.9279 124.612C63.6616 124.199 63.2568 123.925 62.7135 123.789C62.2969 123.685 61.9267 123.689 61.6028 123.8C61.2788 123.912 60.9824 124.169 60.7135 124.574C60.6445 124.662 60.583 124.719 60.5291 124.744C60.473 124.778 60.3997 124.784 60.3091 124.761L59.6571 124.598C59.5666 124.576 59.4961 124.529 59.4457 124.459C59.3952 124.389 59.3854 124.309 59.416 124.221C59.4705 124.032 59.5577 123.847 59.6777 123.666C59.7977 123.484 59.964 123.309 60.1767 123.141C60.3782 122.98 60.6161 122.847 60.8904 122.742C61.1626 122.646 61.4781 122.591 61.8369 122.574C62.1845 122.565 62.5666 122.612 62.9832 122.716Z" fill="#F2F2F2"/>
<path d="M55.3552 118.675C55.8268 118.9 56.1689 119.172 56.3813 119.49C56.5898 119.818 56.685 120.178 56.6669 120.573C56.6448 120.976 56.5279 121.406 56.3161 121.864L54.7634 125.218L55.7488 125.688C55.833 125.729 55.8928 125.788 55.9283 125.867C55.9514 125.951 55.9433 126.035 55.9041 126.119L55.7041 126.551C55.6649 126.636 55.6083 126.692 55.5342 126.718C55.4478 126.75 55.3625 126.745 55.2783 126.705L54.2928 126.234L53.3106 128.356C53.2714 128.441 53.2148 128.496 53.1407 128.523C53.0543 128.554 52.969 128.55 52.8848 128.509L52.291 128.226C52.2068 128.186 52.1531 128.124 52.13 128.04C52.0946 127.961 52.0965 127.88 52.1357 127.795L53.1179 125.673L51.5514 124.925C51.4671 124.885 51.4135 124.823 51.3904 124.74C51.355 124.661 51.3569 124.579 51.3961 124.494L51.596 124.062C51.6353 123.977 51.6981 123.92 51.7845 123.888C51.8585 123.862 51.9377 123.869 52.0219 123.909L53.5885 124.657L55.1 121.392C55.2843 120.994 55.362 120.648 55.3331 120.355C55.3043 120.062 55.1171 119.833 54.7718 119.668L54.0012 119.3C53.917 119.26 53.8633 119.198 53.8402 119.115C53.8048 119.036 53.8067 118.954 53.8459 118.869L54.0576 118.412C54.0968 118.327 54.1597 118.269 54.2461 118.238C54.3201 118.211 54.3993 118.218 54.4835 118.258L55.3552 118.675Z" fill="#F2F2F2"/>
<path d="M53.6829 114.343C53.7628 114.391 53.8102 114.458 53.825 114.543C53.8525 114.625 53.8426 114.707 53.7952 114.787L53.5538 115.197C53.5065 115.278 53.4383 115.329 53.3493 115.352C53.2729 115.371 53.1948 115.357 53.1149 115.308L52.9472 115.207C52.6596 115.033 52.4148 114.962 52.2127 114.992C52.0154 115.015 51.8447 115.102 51.7006 115.255C51.5486 115.403 51.4063 115.59 51.2737 115.815L47.6669 121.945C47.6196 122.025 47.5578 122.075 47.4814 122.094C47.3924 122.117 47.3079 122.104 47.228 122.056L46.6409 121.701C46.561 121.652 46.5137 121.586 46.4989 121.5C46.4714 121.418 46.4813 121.337 46.5286 121.257L50.1425 115.115C50.3934 114.689 50.6814 114.356 51.0065 114.116C51.3236 113.871 51.6821 113.75 52.0818 113.752C52.4862 113.745 52.944 113.896 53.4553 114.205L53.6829 114.343ZM46.6352 123.284C46.7151 123.332 46.7688 123.397 46.7963 123.479C46.8111 123.565 46.7948 123.647 46.7475 123.728L46.3641 124.379C46.3168 124.46 46.2549 124.51 46.1786 124.529C46.0896 124.552 46.0051 124.539 45.9252 124.49L45.1583 124.027C45.0785 123.979 45.0271 123.91 45.0043 123.82C44.9768 123.737 44.9867 123.656 45.0341 123.576L45.4175 122.924C45.4648 122.844 45.533 122.792 45.622 122.77C45.7064 122.755 45.7885 122.772 45.8683 122.82L46.6352 123.284Z" fill="#F2F2F2"/>
<path d="M44.7973 109.828C45.1907 110.172 45.4854 110.517 45.6815 110.862C45.8775 111.207 46.0026 111.527 46.0567 111.823C46.1109 112.118 46.123 112.376 46.0928 112.598C46.0557 112.813 46.0042 112.967 45.9384 113.058C45.8786 113.142 45.8024 113.181 45.7097 113.174C45.6171 113.168 45.5427 113.14 45.4865 113.091L45.0228 112.685C44.9806 112.648 44.9551 112.613 44.9461 112.581C44.9241 112.549 44.9133 112.49 44.9136 112.404C44.9073 112.225 44.8905 112.036 44.8631 111.839C44.8357 111.641 44.7685 111.44 44.6616 111.235C44.5476 111.023 44.3677 110.81 44.1218 110.595C43.7635 110.282 43.4107 110.091 43.0635 110.023C42.7102 109.962 42.4182 110.066 42.1874 110.336C42.0356 110.513 41.9633 110.698 41.9706 110.89C41.9708 111.076 42.0574 111.319 42.2305 111.619C42.3965 111.913 42.6508 112.291 42.9934 112.751C43.3299 113.219 43.5604 113.632 43.6848 113.988C43.8032 114.352 43.83 114.68 43.7654 114.97C43.6947 115.268 43.55 115.544 43.3314 115.799C43.1067 116.062 42.8138 116.246 42.4528 116.352C42.0857 116.464 41.6878 116.47 41.2591 116.368C40.8234 116.259 40.3807 116.009 39.9311 115.615C39.5658 115.296 39.2926 114.976 39.1116 114.657C38.9306 114.337 38.8165 114.033 38.7693 113.744C38.7161 113.462 38.705 113.217 38.7361 113.008C38.7672 112.8 38.8187 112.646 38.8906 112.548C38.9443 112.471 39.017 112.429 39.1087 112.423C39.1943 112.423 39.2687 112.451 39.3319 112.506L39.7746 112.893C39.8237 112.936 39.8568 112.984 39.8737 113.036C39.8836 113.082 39.8904 113.131 39.8942 113.184C39.8856 113.338 39.8909 113.504 39.9103 113.682C39.9227 113.854 39.9819 114.036 40.0879 114.228C40.1808 114.42 40.3502 114.624 40.5961 114.839C40.9473 115.147 41.2746 115.303 41.5777 115.307C41.8809 115.312 42.1297 115.201 42.324 114.974C42.4394 114.84 42.504 114.685 42.5178 114.511C42.5316 114.337 42.466 114.113 42.3211 113.837C42.1762 113.562 41.9319 113.187 41.5884 112.713C41.2036 112.215 40.9446 111.772 40.8112 111.382C40.6778 110.993 40.643 110.646 40.7067 110.342C40.7704 110.039 40.9176 109.752 41.1484 109.483C41.4034 109.185 41.725 108.989 42.1132 108.895C42.4944 108.794 42.9173 108.817 43.3821 108.963C43.8338 109.11 44.3055 109.398 44.7973 109.828Z" fill="#F2F2F2"/>
<path d="M36.5351 96.2033C36.5677 96.2908 36.5692 96.3749 36.5396 96.4557C36.498 96.531 36.4334 96.585 36.346 96.6176L27.7814 99.8151C27.6852 99.851 27.6011 99.8525 27.5291 99.8196C27.445 99.7812 27.3867 99.7183 27.3541 99.6309L27.1093 98.9751C27.0702 98.8701 27.0671 98.7816 27.0999 98.7096C27.1328 98.6375 27.1651 98.5906 27.1968 98.5688L31.4581 93.8099L25.1169 92.9942C25.0754 92.9898 25.0202 92.9755 24.9514 92.9513C24.8794 92.9185 24.8238 92.8496 24.7846 92.7446L24.5448 92.1019C24.5089 92.0057 24.5118 91.92 24.5534 91.8446C24.5831 91.7639 24.646 91.7055 24.7422 91.6696L33.3068 88.4722C33.3942 88.4395 33.4799 88.4424 33.564 88.4807C33.636 88.5136 33.69 88.5781 33.7259 88.6743L33.9657 89.3171C33.9983 89.4045 33.9998 89.4886 33.9702 89.5694C33.9286 89.6447 33.864 89.6987 33.7766 89.7314L27.3236 92.1405L32.4167 92.7347C32.5172 92.737 32.6067 92.7634 32.6853 92.8137C32.7551 92.8674 32.8096 92.9466 32.8487 93.0516L33.0005 93.4582C33.0429 93.5719 33.0553 93.6719 33.0377 93.7581C33.008 93.8389 32.9577 93.9175 32.8865 93.9939L29.4281 97.7806L35.8811 95.3715C35.9685 95.3389 36.0543 95.3418 36.1383 95.3801C36.2103 95.413 36.2627 95.4732 36.2953 95.5606L36.5351 96.2033Z" fill="#F2F2F2"/>
<path d="M32.9152 81.8069C32.9907 82.5122 32.9192 83.1152 32.7005 83.6158C32.4819 84.1164 32.1492 84.516 31.7025 84.8145C31.2464 85.114 30.7135 85.3088 30.1036 85.3987C29.9467 85.424 29.7476 85.4489 29.5062 85.4734C29.2554 85.4988 29.0553 85.5144 28.9057 85.5201C28.2806 85.5554 27.7178 85.4717 27.2174 85.2691C26.7161 85.0573 26.3054 84.7283 25.9854 84.2823C25.6655 83.8363 25.4683 83.2653 25.3938 82.5693C25.3192 81.8733 25.3913 81.275 25.6099 80.7744C25.8285 80.2738 26.1612 79.8742 26.608 79.5756C27.0537 79.2678 27.5862 79.0684 28.2054 78.9775C28.3529 78.9532 28.5521 78.9283 28.8028 78.9029C29.0442 78.8784 29.2444 78.8628 29.4032 78.8561C30.0191 78.8218 30.5818 78.9055 31.0915 79.1071C31.5919 79.3097 32.0021 79.634 32.322 80.08C32.642 80.526 32.8397 81.1016 32.9152 81.8069ZM31.8427 81.9156C31.7811 81.3403 31.5509 80.8992 31.152 80.5926C30.7438 80.2869 30.1853 80.1558 29.4766 80.1995C29.3364 80.2044 29.1594 80.2176 28.9459 80.2393C28.7323 80.2609 28.5564 80.2834 28.4181 80.3068C27.7153 80.4062 27.2013 80.6459 26.8759 81.026C26.5412 81.407 26.4047 81.8852 26.4663 82.4606C26.5278 83.036 26.7632 83.4812 27.1724 83.7962C27.5713 84.1028 28.1246 84.2297 28.8323 84.1767C28.9726 84.1719 29.1495 84.1586 29.3631 84.137C29.5767 84.1153 29.7526 84.0928 29.8909 84.0694C30.5946 83.9793 31.1138 83.7438 31.4485 83.3628C31.7729 82.9734 31.9043 82.491 31.8427 81.9156Z" fill="#F2F2F2"/>
<path d="M33.2119 75.7425C33.2031 75.8354 33.1678 75.9115 33.1059 75.9707C33.0357 76.0197 32.9541 76.0393 32.8613 76.0297L26.261 75.3425C26.1682 75.3328 26.0965 75.2972 26.0461 75.2357C25.9873 75.1638 25.9623 75.0815 25.9711 74.9886L26.0331 74.3335C26.0419 74.2406 26.0814 74.1696 26.1517 74.1206C26.2136 74.0614 26.2909 74.0366 26.3837 74.0463L26.9964 74.1101C26.7037 73.8356 26.477 73.5071 26.3164 73.1244C26.1473 72.7314 26.0901 72.2469 26.1446 71.6708C26.2018 71.0669 26.3848 70.5699 26.6937 70.1798C26.9941 69.7794 27.3911 69.497 27.8848 69.3326C28.3692 69.1672 28.9224 69.1169 29.5443 69.1816L33.4711 69.5905C33.5639 69.6002 33.6402 69.6362 33.6999 69.6988C33.7503 69.7603 33.7711 69.8375 33.7623 69.9305L33.6963 70.6273C33.6875 70.7203 33.6522 70.7963 33.5904 70.8556C33.5201 70.9046 33.4385 70.9242 33.3457 70.9146L29.4886 70.513C28.8387 70.4453 28.3179 70.5506 27.9259 70.8288C27.5246 71.1061 27.295 71.5513 27.2369 72.1646C27.1824 72.7407 27.324 73.2246 27.6619 73.6164C27.9914 73.9978 28.481 74.2224 29.1309 74.2901L32.988 74.6917C33.0808 74.7013 33.1567 74.7421 33.2155 74.8139C33.2659 74.8754 33.2867 74.9527 33.2779 75.0456L33.2119 75.7425Z" fill="#F2F2F2"/>
<path d="M38.4645 65.0614C38.2819 65.6692 38.0513 66.1447 37.7728 66.4878C37.4969 66.8219 37.2097 67.0645 36.9109 67.2155C36.6238 67.3603 36.3496 67.4456 36.0885 67.4714C35.839 67.4911 35.6461 67.4845 35.5098 67.4516C35.418 67.4326 35.3504 67.3821 35.3068 67.3C35.266 67.209 35.2576 67.1233 35.2818 67.0428L35.4752 66.3993C35.4994 66.3188 35.5373 66.2573 35.5891 66.2149C35.6408 66.1724 35.73 66.1514 35.8565 66.1519C36.0062 66.1401 36.1773 66.1057 36.3699 66.0486C36.5714 65.9943 36.7636 65.8736 36.9465 65.6864C37.1384 65.5019 37.2947 65.2086 37.4156 64.8064C37.5419 64.3863 37.5901 64.0151 37.5602 63.6928C37.5393 63.3733 37.4078 63.0974 37.1658 62.8652C36.9353 62.6268 36.5751 62.4309 36.0852 62.2775L35.1767 61.9931C35.3884 62.2941 35.5353 62.6481 35.6176 63.0553C35.691 63.4597 35.6485 63.9255 35.49 64.4529C35.3396 64.9535 35.126 65.356 34.8494 65.6606C34.5638 65.9623 34.2391 66.1834 33.8753 66.3238C33.5053 66.4525 33.1114 66.5149 32.6934 66.5112C32.2782 66.4986 31.8586 66.4357 31.4346 66.3225C31.1825 66.2533 30.9376 66.1767 30.6998 66.0924C30.2865 65.9435 29.9045 65.7555 29.5537 65.5283C29.2056 65.2922 28.9137 65.015 28.6781 64.6967C28.4451 64.3695 28.2977 64.0007 28.2359 63.5901C28.1652 63.1768 28.205 62.7199 28.3554 62.2193C28.5166 61.683 28.752 61.2726 29.0616 60.9882C29.365 60.692 29.6928 60.4768 30.045 60.3425L29.4705 60.1627C29.3814 60.1348 29.3138 60.0843 29.2675 60.0111C29.224 59.9291 29.2156 59.8433 29.2425 59.7539L29.4278 59.1372C29.4547 59.0478 29.5087 58.9816 29.5899 58.9385C29.671 58.8955 29.7561 58.8879 29.8452 58.9158L36.3251 60.9444C36.9218 61.1312 37.4209 61.3999 37.8223 61.7505C38.2264 62.0922 38.4922 62.5372 38.6197 63.0857C38.7499 63.6252 38.6982 64.2838 38.4645 65.0614ZM34.5017 63.8501C34.636 63.4032 34.641 63.0136 34.5168 62.6813C34.3952 62.3401 34.1973 62.0581 33.9232 61.8354C33.6517 61.6037 33.357 61.4332 33.039 61.3239C32.917 61.2759 32.7669 61.224 32.5888 61.1683C32.4018 61.1097 32.2445 61.0654 32.1171 61.0353C31.7938 60.9438 31.4561 60.9163 31.1041 60.9528C30.7547 60.9804 30.436 61.1006 30.1479 61.3136C29.8624 61.5176 29.6525 61.8431 29.5182 62.29C29.3839 62.7369 29.3789 63.1265 29.5032 63.4588C29.6186 63.7883 29.8236 64.0627 30.1182 64.2821C30.404 64.4987 30.7312 64.6745 31.0999 64.8095C31.3288 64.8909 31.5648 64.9648 31.808 65.0312C32.1875 65.1304 32.5595 65.1735 32.9239 65.1605C33.2795 65.1447 33.6 65.0348 33.8855 64.8307C34.162 64.6239 34.3674 64.2971 34.5017 63.8501Z" fill="#F2F2F2"/>
<path d="M39.4612 55.9677C39.1262 56.593 38.7279 57.0501 38.266 57.3391C37.8042 57.6281 37.3054 57.7688 36.7695 57.7612C36.2254 57.7491 35.677 57.6068 35.1243 57.3342C34.9809 57.2659 34.8029 57.1731 34.5904 57.056C34.3697 56.9344 34.1961 56.8335 34.0697 56.7532C33.5353 56.4267 33.1191 56.0376 32.8211 55.5857C32.5276 55.1256 32.3747 54.6205 32.3624 54.0703C32.3501 53.5201 32.5092 52.9364 32.8398 52.3194C33.1703 51.7023 33.5665 51.2493 34.0283 50.9604C34.4901 50.6714 34.989 50.5307 35.5249 50.5382C36.0652 50.5376 36.6158 50.6758 37.1767 50.9529C37.3119 51.0167 37.4898 51.1095 37.7106 51.2311C37.9231 51.3482 38.0966 51.4491 38.2312 51.5339C38.7575 51.8559 39.1737 52.245 39.4798 52.7014C39.7777 53.1532 39.9328 53.6543 39.9451 54.2045C39.9574 54.7547 39.7961 55.3424 39.4612 55.9677ZM38.517 55.4475C38.7903 54.9374 38.849 54.4423 38.6932 53.9622C38.5293 53.4777 38.1433 53.0519 37.5353 52.6849C37.4171 52.6091 37.264 52.5194 37.0759 52.4158C36.8879 52.3122 36.7304 52.2308 36.6034 52.1714C35.9689 51.8538 35.4107 51.7593 34.9288 51.8881C34.4388 52.0123 34.0572 52.3295 33.7839 52.8396C33.5107 53.3497 33.4538 53.8512 33.6133 54.344C33.7691 54.824 34.1532 55.2435 34.7657 55.6022C34.8839 55.678 35.037 55.7677 35.225 55.8713C35.413 55.9749 35.5705 56.0564 35.6976 56.1157C36.3276 56.4415 36.8877 56.5424 37.3777 56.4181C37.864 56.2811 38.2438 55.9576 38.517 55.4475Z" fill="#F2F2F2"/>
<path d="M43.1208 51.5021C43.0572 51.5827 42.9863 51.6274 42.908 51.6363C42.8225 51.6392 42.7434 51.6114 42.6707 51.5529L35.5523 45.8166C35.4724 45.7521 35.428 45.6804 35.419 45.6013C35.4028 45.5163 35.4265 45.4335 35.4901 45.3529L37.4578 42.8573C38.053 42.1024 38.6453 41.5849 39.2347 41.3047C39.824 41.0245 40.4242 40.9568 41.0351 41.1015C41.6387 41.2403 42.2632 41.5638 42.9085 42.0718C43.2413 42.328 43.5312 42.5557 43.7783 42.7548C44.0254 42.9539 44.3059 43.186 44.6199 43.451C45.277 44.0044 45.7433 44.566 46.0191 45.1358C46.2933 45.6924 46.3603 46.2857 46.22 46.9158C46.0782 47.5327 45.7155 48.2113 45.1318 48.9516L43.1208 51.5021ZM42.8443 49.9309L44.1619 48.2598C44.5607 47.7541 44.8095 47.2954 44.9083 46.8836C45.0072 46.4719 44.956 46.077 44.7548 45.6992C44.5594 45.3139 44.2138 44.9156 43.7182 44.5042C43.5117 44.3138 43.3285 44.1543 43.1686 44.0254C43.0015 43.8907 42.838 43.7589 42.6781 43.6301C42.5109 43.4954 42.3162 43.3505 42.0939 43.1953C41.3774 42.6419 40.7249 42.3917 40.1363 42.4448C39.5405 42.492 38.9421 42.8968 38.3411 43.659L37.0668 45.275L42.8443 49.9309Z" fill="#F2F2F2"/>
<g filter="url(#filter1_d_10_1744)">
<path d="M49.5068 44.0109C49.4284 44.0771 49.3498 44.1068 49.2713 44.0998C49.1867 44.0857 49.1146 44.0427 49.0549 43.971L43.2118 36.94C43.1462 36.861 43.1169 36.782 43.1239 36.7028C43.125 36.6164 43.1647 36.5401 43.2432 36.4739L46.1745 33.9997C46.7095 33.5481 47.2191 33.2706 47.7035 33.1672C48.189 33.0505 48.6355 33.0766 49.0429 33.2457C49.4575 33.4087 49.8199 33.6768 50.1301 34.0501C50.3747 34.3444 50.5365 34.6414 50.6156 34.941C50.6959 35.2274 50.7214 35.499 50.6921 35.7558C50.6568 36.0054 50.6013 36.2233 50.5254 36.4095C50.9169 36.3111 51.3479 36.3259 51.8184 36.454C52.296 36.576 52.7167 36.8559 53.0806 37.2938C53.4087 37.6886 53.6208 38.1263 53.7169 38.607C53.813 39.0877 53.7663 39.5791 53.5767 40.0811C53.3883 40.5699 53.0337 41.034 52.5131 41.4735L49.5068 44.0109ZM49.5844 42.4615L51.6492 40.7187C52.1128 40.3274 52.365 39.9008 52.4059 39.4388C52.4467 38.9769 52.315 38.5629 52.0108 38.1968C51.6946 37.8164 51.3103 37.6095 50.8579 37.5761C50.3994 37.5356 49.9384 37.711 49.4748 38.1023L47.41 39.8451L49.5844 42.4615ZM46.6942 38.9837L48.6627 37.3222C49.1192 36.9369 49.3786 36.5408 49.441 36.134C49.4974 35.72 49.3734 35.33 49.0692 34.9639C48.765 34.5978 48.4146 34.4172 48.0182 34.422C47.6218 34.4269 47.1953 34.622 46.7389 35.0072L44.7703 36.6688L46.6942 38.9837Z" fill="#F2F2F2"/>
</g>
<defs>
<filter id="filter0_d_10_1744" x="25.3008" y="28.5391" width="107.486" height="108.398" filterUnits="userSpaceOnUse" color-interpolation-filters="sRGB">
<feFlood flood-opacity="0" result="BackgroundImageFix"/>
<feColorMatrix in="SourceAlpha" type="matrix" values="0 0 0 0 0 0 0 0 0 0 0 0 0 0 0 0 0 0 127 0" result="hardAlpha"/>
<feOffset dy="4"/>
<feGaussianBlur stdDeviation="2"/>
<feComposite in2="hardAlpha" operator="out"/>
<feColorMatrix type="matrix" values="0 0 0 0 0 0 0 0 0 0 0 0 0 0 0 0 0 0 0.25 0"/>
<feBlend mode="normal" in2="BackgroundImageFix" result="effect1_dropShadow_10_1744"/>
<feBlend mode="normal" in="SourceGraphic" in2="effect1_dropShadow_10_1744" result="shape"/>
</filter>
<filter id="filter1_d_10_1744" x="38.998" y="31.9316" width="19.8906" height="20.2871" filterUnits="userSpaceOnUse" color-interpolation-filters="sRGB">
<feFlood flood-opacity="0" result="BackgroundImageFix"/>
<feColorMatrix in="SourceAlpha" type="matrix" values="0 0 0 0 0 0 0 0 0 0 0 0 0 0 0 0 0 0 127 0" result="hardAlpha"/>
<feOffset dy="4"/>
<feGaussianBlur stdDeviation="2"/>
<feComposite in2="hardAlpha" operator="out"/>
<feColorMatrix type="matrix" values="0 0 0 0 0 0 0 0 0 0 0 0 0 0 0 0 0 0 0.25 0"/>
<feBlend mode="normal" in2="BackgroundImageFix" result="effect1_dropShadow_10_1744"/>
<feBlend mode="normal" in="SourceGraphic" in2="effect1_dropShadow_10_1744" result="shape"/>
</filter>
</defs>
</svg>
