<svg width="1400" height="661" viewBox="0 0 1400 661" fill="none" xmlns="http://www.w3.org/2000/svg">
<line x1="-40" y1="21.5" x2="1400" y2="21.5" stroke="#F2F2F2" stroke-opacity="0.05"/>
<line x1="-40" y1="66.5" x2="1400" y2="66.5" stroke="#F2F2F2" stroke-opacity="0.05"/>
<line x1="-40" y1="111.5" x2="1400" y2="111.5" stroke="#F2F2F2" stroke-opacity="0.05"/>
<line x1="-40" y1="156.5" x2="1400" y2="156.5" stroke="#F2F2F2" stroke-opacity="0.05"/>
<line x1="-40" y1="201.5" x2="1400" y2="201.5" stroke="#F2F2F2" stroke-opacity="0.05"/>
<line x1="-40" y1="246.5" x2="1400" y2="246.5" stroke="#F2F2F2" stroke-opacity="0.05"/>
<line x1="-40" y1="291.5" x2="1400" y2="291.5" stroke="#F2F2F2" stroke-opacity="0.05"/>
<line x1="-40" y1="336.5" x2="1400" y2="336.5" stroke="#F2F2F2" stroke-opacity="0.05"/>
<line x1="-40" y1="381.5" x2="1400" y2="381.5" stroke="#F2F2F2" stroke-opacity="0.05"/>
<line x1="-40" y1="426.5" x2="1400" y2="426.5" stroke="#F2F2F2" stroke-opacity="0.05"/>
<line x1="-40" y1="471.5" x2="1400" y2="471.5" stroke="#F2F2F2" stroke-opacity="0.05"/>
<line x1="-40" y1="516.5" x2="1400" y2="516.5" stroke="#F2F2F2" stroke-opacity="0.05"/>
<line x1="-40" y1="561.5" x2="1400" y2="561.5" stroke="#F2F2F2" stroke-opacity="0.05"/>
<line x1="-40" y1="606.5" x2="1400" y2="606.5" stroke="#F2F2F2" stroke-opacity="0.05"/>
<line x1="-40" y1="651.5" x2="1400" y2="651.5" stroke="#F2F2F2" stroke-opacity="0.05"/>
<line x1="5.5" y1="-29" x2="5.49997" y2="661" stroke="#F2F2F2" stroke-opacity="0.05"/>
<line x1="50.5" y1="-29" x2="50.5" y2="661" stroke="#F2F2F2" stroke-opacity="0.05"/>
<line x1="95.5" y1="-29" x2="95.5" y2="661" stroke="#F2F2F2" stroke-opacity="0.05"/>
<line x1="140.5" y1="-29" x2="140.5" y2="661" stroke="#F2F2F2" stroke-opacity="0.05"/>
<line x1="185.5" y1="-29" x2="185.5" y2="661" stroke="#F2F2F2" stroke-opacity="0.05"/>
<line x1="230.5" y1="-29" x2="230.5" y2="661" stroke="#F2F2F2" stroke-opacity="0.05"/>
<line x1="275.5" y1="-29" x2="275.5" y2="661" stroke="#F2F2F2" stroke-opacity="0.05"/>
<line x1="320.5" y1="-29" x2="320.5" y2="661" stroke="#F2F2F2" stroke-opacity="0.05"/>
<line x1="365.5" y1="-29" x2="365.5" y2="661" stroke="#F2F2F2" stroke-opacity="0.05"/>
<line x1="410.5" y1="-29" x2="410.5" y2="661" stroke="#F2F2F2" stroke-opacity="0.05"/>
<line x1="455.5" y1="-29" x2="455.5" y2="661" stroke="#F2F2F2" stroke-opacity="0.05"/>
<line x1="500.5" y1="-29" x2="500.5" y2="661" stroke="#F2F2F2" stroke-opacity="0.05"/>
<line x1="545.5" y1="-29" x2="545.5" y2="661" stroke="#F2F2F2" stroke-opacity="0.05"/>
<line x1="590.5" y1="-29" x2="590.5" y2="661" stroke="#F2F2F2" stroke-opacity="0.05"/>
<line x1="635.5" y1="-29" x2="635.5" y2="661" stroke="#F2F2F2" stroke-opacity="0.05"/>
<line x1="680.5" y1="-29" x2="680.5" y2="661" stroke="#F2F2F2" stroke-opacity="0.05"/>
<line x1="725.5" y1="-29" x2="725.5" y2="661" stroke="#F2F2F2" stroke-opacity="0.05"/>
<line x1="770.5" y1="-29" x2="770.5" y2="661" stroke="#F2F2F2" stroke-opacity="0.05"/>
<line x1="815.5" y1="-29" x2="815.5" y2="661" stroke="#F2F2F2" stroke-opacity="0.05"/>
<line x1="860.5" y1="-29" x2="860.5" y2="661" stroke="#F2F2F2" stroke-opacity="0.05"/>
<line x1="905.5" y1="-29" x2="905.5" y2="661" stroke="#F2F2F2" stroke-opacity="0.05"/>
<line x1="950.5" y1="-29" x2="950.5" y2="661" stroke="#F2F2F2" stroke-opacity="0.05"/>
<line x1="995.502" y1="-29" x2="995.502" y2="661" stroke="#F2F2F2" stroke-opacity="0.05"/>
<line x1="1040.5" y1="-29" x2="1040.5" y2="661" stroke="#F2F2F2" stroke-opacity="0.05"/>
<line x1="1085.5" y1="-29" x2="1085.5" y2="661" stroke="#F2F2F2" stroke-opacity="0.05"/>
<line x1="1130.5" y1="-29" x2="1130.5" y2="661" stroke="#F2F2F2" stroke-opacity="0.05"/>
<line x1="1175.5" y1="-29" x2="1175.5" y2="661" stroke="#F2F2F2" stroke-opacity="0.05"/>
<line x1="1220.5" y1="-29" x2="1220.5" y2="661" stroke="#F2F2F2" stroke-opacity="0.05"/>
<line x1="1265.5" y1="-29" x2="1265.5" y2="661" stroke="#F2F2F2" stroke-opacity="0.05"/>
<line x1="1310.5" y1="-29" x2="1310.5" y2="661" stroke="#F2F2F2" stroke-opacity="0.05"/>
<line x1="1355.5" y1="-29" x2="1355.5" y2="661" stroke="#F2F2F2" stroke-opacity="0.05"/>
</svg>
